<?xml version="1.0" standalone="no"?>
<!DOCTYPE svg PUBLIC "-//W3C//DTD SVG 20010904//EN"
 "http://www.w3.org/TR/2001/REC-SVG-20010904/DTD/svg10.dtd">
<svg version="1.0" xmlns="http://www.w3.org/2000/svg"
 width="120.000000pt" height="120.000000pt" viewBox="0 0 120.000000 120.000000"
 preserveAspectRatio="xMidYMid meet">
<metadata>
Created by potrace 1.11, written by Peter Selinger 2001-2013
</metadata>
<g transform="translate(0.000000,120.000000) scale(0.100000,-0.100000)"
fill="#000000" stroke="none">
<path d="M215 1182 c-65 -22 -117 -63 -155 -120 -58 -88 -61 -116 -58 -484 l3
-333 26 -55 c34 -74 76 -120 141 -156 l53 -29 375 0 375 0 53 29 c65 36 107
82 141 156 l26 55 0 355 0 355 -33 68 c-24 49 -48 79 -83 107 -84 66 -109 70
-483 70 -287 -1 -338 -3 -381 -18z m173 -329 c3 -31 2 -32 -40 -35 -36 -2 -44
-7 -46 -25 -2 -12 29 -114 69 -228 l72 -205 28 77 c15 43 42 121 61 173 33 90
34 97 21 130 -19 45 -51 80 -75 80 -14 0 -18 8 -18 35 l0 35 150 0 150 0 0
-35 c0 -34 -1 -35 -39 -35 -31 0 -41 -4 -46 -20 -4 -13 20 -97 65 -229 l72
-209 69 202 c38 110 69 211 69 222 0 24 -17 34 -61 34 -25 0 -29 4 -29 29 0
17 5 33 11 37 6 3 62 3 125 -1 l114 -7 0 -28 c0 -22 -5 -29 -27 -33 -16 -3
-34 -15 -41 -27 -7 -11 -48 -118 -91 -238 -135 -371 -116 -332 -165 -332 l-42
0 -69 189 c-39 104 -73 183 -77 177 -4 -7 -34 -84 -67 -172 -32 -87 -62 -167
-66 -176 -5 -13 -18 -18 -49 -18 l-42 0 -78 213 c-144 389 -134 367 -172 383
-25 11 -34 20 -34 39 0 22 4 24 58 28 31 2 97 3 147 3 l90 -1 3 -32z"/>
</g>
</svg>
